<?xml version="1.0" encoding="UTF-8"?>
<svg width="32px" height="32px" viewBox="0 0 32 32" version="1.1" xmlns="http://www.w3.org/2000/svg">
    <title>Queen Chess Piece</title>
    <g stroke="none" stroke-width="1" fill="none" fill-rule="evenodd">
        <circle fill="#7F5AF0" cx="16" cy="16" r="16"/>
        <path d="M16,6 C17.1,6 18,6.9 18,8 C18,8.7 17.6,9.4 17,9.7 L18,15 L21,11 C20.4,10.7 20,10.1 20,9.3 C20,8.2 20.9,7.3 22,7.3 C23.1,7.3 24,8.2 24,9.3 C24,10.1 23.6,10.7 23,11 L25,15 L27,9.7 C26.4,9.4 26,8.7 26,8 C26,6.9 26.9,6 28,6 C29.1,6 30,6.9 30,8 C30,9.1 29.1,10 28,10 L26,24 L6,24 L4,10 C2.9,10 2,9.1 2,8 C2,6.9 2.9,6 4,6 C5.1,6 6,6.9 6,8 C6,8.7 5.6,9.4 5,9.7 L7,15 L9,11 C8.4,10.7 8,10.1 8,9.3 C8,8.2 8.9,7.3 10,7.3 C11.1,7.3 12,8.2 12,9.3 C12,10.1 11.6,10.7 11,11 L14,15 L15,9.7 C14.4,9.4 14,8.7 14,8 C14,6.9 14.9,6 16,6 Z" fill="#FFFFFF"/>
        <rect fill="#FFFFFF" x="6" y="25" width="20" height="2" rx="1"/>
    </g>
</svg>